<svg class="svg-icon" style="width: 1em; height: 1em;vertical-align: middle;fill: currentColor;overflow: hidden;" viewBox="0 0 1024 1024" version="1.1" xmlns="http://www.w3.org/2000/svg"><path d="M512 1024c-190.4 0-345.6-158.4-345.6-352 0-8 0-17.6 1.6-27.2 1.6-28.8 8-57.6 16-83.2C248 332.8 476.8 43.2 486.4 32L512 0l24 30.4c9.6 12.8 238.4 302.4 304 531.2 8 25.6 14.4 54.4 16 83.2 1.6 9.6 1.6 19.2 1.6 27.2 0 193.6-155.2 352-345.6 352z m0-921.6c-60.8 81.6-217.6 302.4-267.2 476.8-8 24-12.8 46.4-14.4 70.4 0 8-1.6 16-1.6 22.4 0 160 126.4 289.6 283.2 289.6S795.2 832 795.2 672c0-6.4 0-12.8-1.6-20.8-1.6-24-6.4-48-12.8-68.8-51.2-177.6-208-398.4-268.8-480z"  /></svg>